<svg width="97" height="95" viewBox="0 0 97 95" fill="none" xmlns="http://www.w3.org/2000/svg">
<path d="M91.162 17.6527C90.735 17.1652 90.2789 16.6972 89.7953 16.2505C90.2817 15.1353 90.6511 13.9848 90.8992 12.8129C91.6315 8.52573 90.9955 4.14793 89.0593 0.147814C89.0593 0.147814 83.1718 -1.43532 69.662 6.38988C63.9265 5.0272 58.0022 4.34243 52.052 4.35442C46.0849 4.34542 40.1436 5.03009 34.3895 6.38988C20.8797 -1.52578 14.9922 0.147814 14.9922 0.147814C13.0792 4.10557 12.4435 8.43436 13.1523 12.6772C13.4018 13.8978 13.7891 15.0946 14.3088 16.2505C13.8357 16.7028 13.3626 17.2004 12.9421 17.6527C9.01943 21.8866 6.93718 27.1657 7.05456 32.5794C7.04208 33.8633 7.11228 35.1469 7.26483 36.4241C8.94697 56.4621 24.4543 61.121 39.2257 62.5684C37.135 64.2413 35.7173 66.4434 35.178 68.8557C34.6894 70.4646 34.4595 72.1235 34.4946 73.786V79.7115C28.6124 80.1638 22.5776 79.4265 20.7062 74.9123C18.6974 70.5916 15.3658 66.8198 11.0654 63.9978C10.7511 63.8514 10.4521 63.6819 10.1718 63.4912C9.79417 62.6372 9.12513 61.9015 8.2526 61.3808C7.38007 60.8601 6.34487 60.5788 5.28304 60.5737H5.25676C3.86713 60.5737 2.53403 61.0471 1.54896 61.8905C0.563888 62.7339 0.00699165 63.8786 4.35263e-05 65.0743C-0.0157266 68.7472 4.25798 71.1219 6.00847 71.927C8.05362 73.7002 9.69876 75.7845 10.8604 78.0741C12.7739 82.7013 18.3723 89.735 34.3369 88.8213L34.3474 89.2645L34.3685 90.4768C34.3685 91.6764 34.9223 92.8269 35.9081 93.6752C36.8939 94.5235 38.231 95 39.6252 95H64.4053C65.7995 95 67.1366 94.5235 68.1224 93.6752C69.1082 92.8269 69.662 91.6764 69.662 90.4768C69.662 90.4768 69.7041 76.1834 69.7041 73.786C69.7391 72.1235 69.5092 70.4646 69.0207 68.8557L69.0102 68.8286L69.0312 68.8557C68.9839 68.6974 68.9156 68.5708 68.863 68.417C68.2773 66.1759 66.922 64.1382 64.9731 62.5684L65.0361 62.6634L64.931 62.5729C79.7024 61.1255 95.1045 56.3761 96.7867 36.4287C96.9392 35.1514 97.0094 33.8679 96.997 32.5839C97.0902 27.181 95.0311 21.9134 91.162 17.6572V17.6527Z" fill="black"/>
</svg>
