<svg width="95" height="95" viewBox="0 0 95 95" fill="none" xmlns="http://www.w3.org/2000/svg">
<path d="M84.4444 0C87.244 0 89.9288 1.1121 91.9083 3.09165C93.8879 5.0712 95 7.75605 95 10.5556V84.4444C95 87.244 93.8879 89.9288 91.9083 91.9083C89.9288 93.8879 87.244 95 84.4444 95H10.5556C7.75605 95 5.0712 93.8879 3.09165 91.9083C1.1121 89.9288 0 87.244 0 84.4444V10.5556C0 7.75605 1.1121 5.0712 3.09165 3.09165C5.0712 1.1121 7.75605 0 10.5556 0H84.4444ZM81.8056 81.8056V53.8333C81.8056 49.2701 79.9928 44.8938 76.7662 41.6672C73.5395 38.4405 69.1632 36.6278 64.6 36.6278C60.1139 36.6278 54.8889 39.3722 52.3556 43.4889V37.6306H37.6306V81.8056H52.3556V55.7861C52.3556 51.7222 55.6278 48.3972 59.6917 48.3972C61.6513 48.3972 63.5307 49.1757 64.9164 50.5614C66.3021 51.9471 67.0806 53.8265 67.0806 55.7861V81.8056H81.8056ZM20.4778 29.3444C22.8294 29.3444 25.0846 28.4103 26.7475 26.7475C28.4103 25.0846 29.3444 22.8294 29.3444 20.4778C29.3444 15.5694 25.3861 11.5583 20.4778 11.5583C18.1122 11.5583 15.8435 12.4981 14.1708 14.1708C12.4981 15.8435 11.5583 18.1122 11.5583 20.4778C11.5583 25.3861 15.5694 29.3444 20.4778 29.3444M27.8139 81.8056V37.6306H13.1944V81.8056H27.8139V81.8056Z" fill="black"/>
</svg>
